<?xml version="1.0" standalone="no"?>
<!DOCTYPE svg PUBLIC "-//W3C//DTD SVG 20010904//EN"
 "http://www.w3.org/TR/2001/REC-SVG-20010904/DTD/svg10.dtd">
<svg version="1.0" xmlns="http://www.w3.org/2000/svg"
 width="192.000000pt" height="192.000000pt" viewBox="0 0 192.000000 192.000000"
 preserveAspectRatio="xMidYMid meet">
<metadata>
Created by potrace 1.14, written by Peter Selinger 2001-2017
</metadata>
<g transform="translate(0.000000,192.000000) scale(0.100000,-0.100000)"
fill="#000000" stroke="none">
<path d="M70 1784 c0 -49 -3 -63 -12 -58 -10 6 -10 5 -1 -7 17 -21 18 -483 0
-473 -9 6 -9 5 0 -7 9 -11 12 -141 12 -530 0 -283 1 -542 1 -575 0 -50 3 -63
18 -68 9 -3 24 -9 32 -12 13 -5 13 -4 0 5 -11 7 -7 10 18 9 20 -1 29 -5 25
-12 -4 -6 1 -5 10 3 9 7 17 9 17 4 0 -5 7 -10 15 -10 8 0 12 4 9 9 -10 16 29
8 42 -9 13 -17 14 -17 7 2 -6 18 -5 19 12 5 11 -9 16 -10 11 -2 -4 7 -1 12 9
12 9 0 14 -3 12 -7 -3 -5 11 -9 30 -9 22 -1 30 2 22 7 -8 5 -2 7 19 7 20 -1
29 -5 25 -12 -4 -6 1 -5 10 3 9 7 17 9 17 4 0 -5 7 -10 15 -10 8 0 12 4 9 9
-10 16 29 8 42 -9 13 -17 14 -17 7 2 -6 18 -5 19 12 5 11 -9 16 -10 11 -2 -4
7 -1 12 9 12 9 0 14 -3 12 -7 -3 -5 11 -9 30 -9 22 -1 30 2 22 7 -8 5 -2 7 19
7 20 -1 29 -5 25 -12 -4 -6 1 -5 10 3 9 7 17 9 17 4 0 -5 7 -10 15 -10 8 0 12
4 9 9 -10 16 29 8 42 -9 13 -17 14 -17 7 2 -6 18 -5 19 12 5 11 -9 16 -10 11
-2 -4 7 -1 12 9 12 9 0 14 -3 12 -7 -3 -5 11 -9 30 -9 22 -1 30 2 22 7 -8 5
-2 7 19 7 20 -1 29 -5 25 -12 -4 -6 1 -5 10 3 9 7 17 9 17 4 0 -5 7 -10 15
-10 8 0 12 4 9 9 -10 16 29 8 42 -10 13 -16 14 -16 7 3 -6 18 -5 19 12 5 11
-9 16 -10 11 -2 -4 7 -1 12 9 12 9 0 14 -3 12 -7 -3 -5 11 -9 30 -9 22 -1 30
2 22 7 -8 5 -2 7 19 7 20 -1 29 -5 25 -12 -4 -6 1 -5 10 3 9 7 17 9 17 4 0 -5
7 -10 15 -10 8 0 12 4 9 9 -10 16 29 8 42 -9 13 -17 14 -17 7 2 -6 18 -5 19
12 5 11 -9 16 -10 11 -2 -4 7 -1 12 9 12 10 0 14 -5 9 -12 -5 -10 -4 -10 6 -1
11 10 16 9 27 -5 12 -16 12 -15 6 3 -6 18 -5 19 12 5 11 -9 16 -10 11 -2 -4 7
-1 12 9 12 9 0 14 -3 12 -8 -3 -4 11 -8 30 -8 22 -1 30 2 22 7 -8 5 -2 7 19 7
20 -1 29 -5 25 -12 -4 -6 1 -5 10 3 9 7 17 9 17 4 0 -5 7 -10 15 -10 8 0 12 4
9 9 -10 16 29 8 42 -9 13 -17 14 -17 7 2 -6 18 -5 19 12 5 11 -9 16 -10 11 -2
-4 7 -1 12 9 12 9 0 14 -3 12 -7 -3 -5 11 -9 30 -9 22 -1 30 2 22 7 -8 5 -2 7
19 7 20 -1 29 -5 25 -12 -4 -6 1 -5 10 3 9 7 17 9 17 4 0 -5 7 -10 15 -10 8 0
12 4 9 9 -3 4 9 8 26 8 17 0 29 -4 26 -8 -3 -5 1 -9 9 -9 8 0 11 5 8 10 -4 6
2 8 15 5 12 -4 24 -2 27 2 3 4 5 360 5 789 1 610 3 780 13 774 8 -5 8 -2 -1 9
-7 9 -12 39 -11 69 1 30 1 73 0 97 l-1 42 -890 0 -890 0 0 -66z"/>
</g>
</svg>
